<?xml version="1.0" encoding="UTF-8"?>
<svg id="Layer_2" data-name="Layer 2" xmlns="http://www.w3.org/2000/svg" viewBox="0 0 1920.46 515.49">
  <defs>
    <style>
      .cls-1 {
        opacity: .3;
      }

      .cls-2 {
        fill: #fefefe;
      }
    </style>
  </defs>
  <g id="Layer_2-2" data-name="Layer 2">
    <g class="cls-1">
      <path class="cls-2" d="M1919.73,515.48H.71C.12,387.49-.04,259.22.23,130.67c.84-3.39,3.23-2.21,7.44,1.45,88.7,53.71,175.09,97.14,271.07,134.68,165.67,64.6,331.71,97.89,500.58,71.55,75.29-11.74,153.74-24.47,225.68-43.18,53.82-16.82,107.19-35.07,159.9-55.1,93.43-43.29,187.25-86.98,281.44-131.09,49.8-23.19,101.43-41.08,152.17-54.62,87.02-23.22,179.6-45.74,271.08-52.65,5.21-.44,47.96-2.82,49.75-1.1.37.36.67.79.89,1.26.27,171.37.1,342.57-.5,513.61Z"/>
    </g>
  </g>
  <g id="Layer_1-2" data-name="Layer 1">
    <path class="cls-2" d="M1919.73,515.48H.71C.12,387.49-.17,304.38.1,175.83c.84-3.39,3.23-2.21,7.44,1.45,88.7,53.71,175.09,97.14,271.07,134.68,165.67,64.6,331.84,52.73,500.71,26.4,75.29-11.74,153.74-24.47,225.68-43.18,53.82-16.82,107.19-35.07,159.9-55.1,93.43-43.29,161.41-59.73,263.53-95.48,60.73-21.08,103.87-35.69,173.36-50.3,89.87-18.89,178.21-23.23,269.36-21.7,5.21-.44,47.4-1.72,49.19,0,.37.36-.46,16.54-.24,17.01.27,171.37.21,254.84-.4,425.88Z"/>
  </g>
</svg>